<?xml version="1.0" encoding="UTF-8" standalone="no"?>
<!-- Generator: Adobe Illustrator 16.0.0, SVG Export Plug-In . SVG Version: 6.00 Build 0)  -->

<svg
   xmlns:dc="http://purl.org/dc/elements/1.1/"
   xmlns:cc="http://creativecommons.org/ns#"
   xmlns:rdf="http://www.w3.org/1999/02/22-rdf-syntax-ns#"
   xmlns:svg="http://www.w3.org/2000/svg"
   xmlns="http://www.w3.org/2000/svg"
   xmlns:sodipodi="http://sodipodi.sourceforge.net/DTD/sodipodi-0.dtd"
   xmlns:inkscape="http://www.inkscape.org/namespaces/inkscape"
   version="1.1"
   id="Layer_1"
   x="0px"
   y="0px"
   width="22"
   height="22"
   viewBox="0 0 22 22"
   enable-background="new 0 0 24 24"
   xml:space="preserve"
   inkscape:version="0.91 r13725"
   sodipodi:docname="ni4ce-stream.svg"><metadata
     id="metadata4285"><rdf:RDF><cc:Work
         rdf:about=""><dc:format>image/svg+xml</dc:format><dc:type
           rdf:resource="http://purl.org/dc/dcmitype/StillImage" /><dc:title></dc:title></cc:Work></rdf:RDF></metadata><defs
     id="defs4283" /><sodipodi:namedview
     pagecolor="#ffffff"
     bordercolor="#666666"
     borderopacity="1"
     objecttolerance="10"
     gridtolerance="10"
     guidetolerance="10"
     inkscape:pageopacity="0"
     inkscape:pageshadow="2"
     inkscape:window-width="3828"
     inkscape:window-height="2106"
     id="namedview4281"
     showgrid="false"
     fit-margin-top="0"
     fit-margin-left="0"
     fit-margin-right="0"
     fit-margin-bottom="0"
     inkscape:zoom="72.666667"
     inkscape:cx="9.8990826"
     inkscape:cy="11.108275"
     inkscape:window-x="0"
     inkscape:window-y="48"
     inkscape:window-maximized="0"
     inkscape:current-layer="Layer_1" /><path
     d="m 11,8.2499999 c 1.519,0 2.75,1.231 2.75,2.7500001 0,1.519 -1.231,2.75 -2.75,2.75 C 9.481,13.75 8.25,12.519 8.25,11 8.25,9.4809999 9.481,8.2499999 11,8.2499999 Z M 6.188,11 c 0,1.329 0.539,2.532 1.41,3.403 L 6.14,15.861 C 4.895,14.617 4.125,12.899 4.125,11 4.125,9.1019999 4.895,7.3829999 6.139,6.1390001 L 7.597,7.5969999 C 6.726,8.4679999 6.188,9.6709999 6.188,11 Z m 9.625,0 c 0,-1.3290001 -0.539,-2.5320001 -1.41,-3.4030001 L 15.861,6.1390001 C 17.105,7.3829999 17.875,9.1019999 17.875,11 c 0,1.899 -0.77,3.617 -2.014,4.861 l -1.458,-1.458 c 0.871,-0.871 1.41,-2.074 1.41,-3.403 z m -13.75,0 c 0,2.468 1,4.703 2.618,6.32 L 3.223,18.778 C 1.231,16.788 0,14.038 0,11 0,7.9619999 1.231,5.2120001 3.222,3.2220001 l 1.458,1.458 C 3.063,6.2970001 2.063,8.5319999 2.063,11 Z m 17.875,0 c 0,-2.4680001 -1,-4.7029999 -2.618,-6.3199999 l 1.458,-1.458 C 20.769,5.2120001 22,7.9619999 22,11 c 0,3.038 -1.231,5.788 -3.222,7.778 L 17.32,17.32 c 1.617,-1.617 2.618,-3.852 2.618,-6.32 z"
     id="path4279"
     inkscape:connector-curvature="0" /></svg>